<?xml version="1.0" encoding="utf-8"?>
<!-- Generator: Adobe Illustrator 16.0.0, SVG Export Plug-In . SVG Version: 6.00 Build 0)  -->
<!DOCTYPE svg PUBLIC "-//W3C//DTD SVG 1.1//EN" "http://www.w3.org/Graphics/SVG/1.1/DTD/svg11.dtd">
<svg version="1.1" id="Слой_1" focusable="false"
	 xmlns="http://www.w3.org/2000/svg" xmlns:xlink="http://www.w3.org/1999/xlink" x="0px" y="0px" width="640px" height="480px"
	 viewBox="0 0 640 480" enable-background="new 0 0 640 480" xml:space="preserve">
<circle fill="#d3dcee" stroke="#d3dcee" cx="448.498" cy="137.25" r="23.25"/>
<path fill="none" stroke="#d3dcee" stroke-width="44" stroke-miterlimit="10" d="M368.803,185.2l19.355,9.834
	c5.482,2.78,9.494,7.854,10.98,13.889l8.068,27.201c2.453,8.283,8.497,14.981,16.414,18.194l11.181,4.543
	c7.018,2.848,14.867,2.697,21.771-0.416l35.553-16.027c10.115-4.563,16.63-14.738,16.623-25.969V94.675
	c0.016-5.655-2.188-11.082-6.123-15.087L494.75,71.6l12.433-25.223c1.032-2.087,1.566-4.39,1.564-6.726
	c0-5.882-4.698-10.65-10.5-10.65H368.803c-92.752,0-167.933,76.325-167.933,170.4c0,0,0,161.402,0,170.4
	c0,8.994-4.944,28.239-14.123,28.4c-9.176,0.158-13.998,6.354-13.998,14.197v28.399c0,7.843,6.267,14.201,13.998,14.201H494.75"/>
<line fill="none" stroke="#d3dcee" stroke-width="44" stroke-miterlimit="10" x1="131.251" y1="342" x2="357.242" y2="342"/>
<line fill="none" stroke="#d3dcee" stroke-width="44" stroke-miterlimit="10" x1="131.251" y1="276.5" x2="357.242" y2="276.5"/>
</svg>
